<svg xmlns="http://www.w3.org/2000/svg" viewBox="0 0 67.732 67.732" height="256" width="256"><defs><clipPath id="a" clipPathUnits="userSpaceOnUse"><path d="M811.33 458.792c0-41.808 33.901-75.707 75.717-75.707.308 0 .616 0 .922.011V534.49c-.306.009-.614.009-.922.009-41.816 0-75.717-33.899-75.717-75.707"/></clipPath></defs><g clip-path="url(#a)" transform="matrix(.44733 0 0 -.44733 -346.211 239.099)"><path d="M811.335 458.793c0 41.812 33.896 75.706 75.707 75.706 41.813 0 75.708-33.894 75.708-75.706 0-41.812-33.895-75.708-75.708-75.708-41.811 0-75.707 33.896-75.707 75.708" fill="#fefefe"/></g><path d="M37.97 24.274a5.556 5.556 0 00-4.673-.578 3.947 3.947 0 00-2.085 1.014 5.316 5.316 0 00-1.338 1.971c-.549 1.082-.763 2.312-.388 3.446.065.196.152.374.247.543.933 3.025 4.13 5.036 7.346 3.719 4.307-1.764 4.845-7.62.89-10.115M32.68 38.334c-2.766 0-2.77 4.298 0 4.298 2.766 0 2.77-4.298 0-4.298M44.31 35.584c-1.124 0-1.126 1.747 0 1.747 1.125 0 1.127-1.747 0-1.747M38.943 8.506c-3.733 0-3.74 5.801 0 5.801 3.733 0 3.739-5.801 0-5.801" fill="#e6e6e6"/></svg>