<svg xmlns="http://www.w3.org/2000/svg" viewBox="0 0 67.732 67.732" height="256" width="256"><path d="M67.732 33.866c0 18.704-15.162 33.866-33.866 33.866S0 52.57 0 33.866 15.162 0 33.866 0s33.866 15.162 33.866 33.866" fill="#fefefe"/><path d="M59.21 18.87c-.74-4.59-5.814-7.4-10.248-7.161-4.259.23-7.55 3.833-8.141 7.916-1.113 2.5-.993 5.425 1.336 7.712a9.077 9.077 0 002.398 1.688c.71.654 1.487 1.242 2.311 1.739 1.307.787 2.57.502 3.45-.269a8.867 8.867 0 003.625-.945c3.864-1.922 5.945-6.492 5.27-10.68M50.086 35.667c-.598-.55-1.333-.896-2.162-.896-.784 0-1.607.341-2.162.896-.53.53-.93 1.4-.895 2.162.035.791.295 1.61.895 2.162.598.55 1.334.895 2.162.895.784 0 1.608-.34 2.162-.895.53-.53.93-1.4.896-2.162-.035-.792-.295-1.611-.896-2.162M35.982 18.183c-1.641 0-1.644 2.551 0 2.551 1.642 0 1.645-2.55 0-2.55M36.43 30.733c-1.035 0-1.036 1.608 0 1.608 1.034 0 1.036-1.608 0-1.608M20.86 45.765c-.629-.577-1.446-.997-2.324-.962l-.447.018c-.858.033-1.695.34-2.31.956a2.448 2.448 0 00-.676 1.052c-.205.39-.298.809-.281 1.259.037.845.315 1.721.957 2.31.653.6 1.414.923 2.31.958.15.005.298.01.447.017.453.017.874-.077 1.266-.283a2.46 2.46 0 001.057-.679c.32-.298.547-.65.68-1.058.205-.391.3-.813.283-1.265-.038-.85-.318-1.73-.963-2.323" fill="#e6e6e6"/></svg>