<svg xmlns="http://www.w3.org/2000/svg" xmlns:xlink="http://www.w3.org/1999/xlink" height="480" width="854"><defs><clipPath id="b" clipPathUnits="userSpaceOnUse"><path d="M0 0h1096v780H0z"/></clipPath><clipPath id="d" clipPathUnits="userSpaceOnUse"><path d="M0 0h1096v780H0z"/></clipPath><clipPath id="e" clipPathUnits="userSpaceOnUse"><path d="M165.99 577.27h22.324v-22.324H165.99z"/></clipPath><clipPath id="f" clipPathUnits="userSpaceOnUse"><path d="M165.99 554.945h22.324v22.324H165.99z"/></clipPath><clipPath id="g" clipPathUnits="userSpaceOnUse"><path d="M449.526 602.981h36.873v-36.873h-36.873z"/></clipPath><clipPath id="h" clipPathUnits="userSpaceOnUse"><path d="M449.526 566.107h36.873v36.873h-36.873z"/></clipPath><clipPath id="i" clipPathUnits="userSpaceOnUse"><path d="M210.711 170.387h81.578V88.81h-81.578z"/></clipPath><clipPath id="j" clipPathUnits="userSpaceOnUse"><path d="M210.711 88.81h81.578v81.577h-81.578z"/></clipPath><clipPath id="k" clipPathUnits="userSpaceOnUse"><path d="M977.674 75.516h81.576V-6.062h-81.576z"/></clipPath><clipPath id="l" clipPathUnits="userSpaceOnUse"><path d="M977.674-6.062h81.576v81.577h-81.576z"/></clipPath><clipPath id="m" clipPathUnits="userSpaceOnUse"><path d="M987.338 722.056h22.322v-22.325h-22.322z"/></clipPath><clipPath id="n" clipPathUnits="userSpaceOnUse"><path d="M987.338 699.731h22.322v22.325h-22.322z"/></clipPath><clipPath id="o" clipPathUnits="userSpaceOnUse"><path d="M383.115 103.665h37.486V66.18h-37.486z"/></clipPath><clipPath id="p" clipPathUnits="userSpaceOnUse"><path d="M383.115 66.18h37.486v37.485h-37.486z"/></clipPath><clipPath id="q" clipPathUnits="userSpaceOnUse"><path d="M647.82 558.834h22.325v-22.325H647.82z"/></clipPath><clipPath id="r" clipPathUnits="userSpaceOnUse"><path d="M647.82 536.509h22.324v22.325H647.82z"/></clipPath><clipPath id="s" clipPathUnits="userSpaceOnUse"><path d="M337.415 764h22.324v-22.324h-22.324z"/></clipPath><clipPath id="t" clipPathUnits="userSpaceOnUse"><path d="M337.415 741.676h22.324V764h-22.324z"/></clipPath><clipPath id="u" clipPathUnits="userSpaceOnUse"><path d="M59.752 675.096h22.324v-22.324H59.752z"/></clipPath><clipPath id="v" clipPathUnits="userSpaceOnUse"><path d="M59.752 652.771h22.324v22.324H59.752z"/></clipPath><clipPath id="w" clipPathUnits="userSpaceOnUse"><path d="M695.176 159.197H717.5v-22.324h-22.324z"/></clipPath><clipPath id="x" clipPathUnits="userSpaceOnUse"><path d="M695.176 136.873H717.5v22.324h-22.324z"/></clipPath><clipPath id="y" clipPathUnits="userSpaceOnUse"><path d="M852.869 151.895h22.324V129.57h-22.324z"/></clipPath><clipPath id="z" clipPathUnits="userSpaceOnUse"><path d="M852.869 129.57h22.324v22.323h-22.324z"/></clipPath><clipPath id="A" clipPathUnits="userSpaceOnUse"><path d="M37.428 159.197h22.324v-22.324H37.428z"/></clipPath><clipPath id="B" clipPathUnits="userSpaceOnUse"><path d="M37.428 136.873h22.324v22.324H37.428z"/></clipPath><clipPath id="C" clipPathUnits="userSpaceOnUse"><path d="M574.981 114.827h22.325V92.503h-22.325z"/></clipPath><clipPath id="D" clipPathUnits="userSpaceOnUse"><path d="M574.981 92.503h22.324v22.324h-22.324z"/></clipPath><clipPath id="E" clipPathUnits="userSpaceOnUse"><path d="M822.492 57.957h22.324V35.633h-22.324z"/></clipPath><clipPath id="F" clipPathUnits="userSpaceOnUse"><path d="M822.492 35.633h22.324v22.324h-22.324z"/></clipPath><clipPath id="G" clipPathUnits="userSpaceOnUse"><path d="M109.234 54.883h22.324V32.559h-22.324z"/></clipPath><clipPath id="H" clipPathUnits="userSpaceOnUse"><path d="M109.234 32.559h22.324v22.324h-22.324z"/></clipPath><clipPath id="I" clipPathUnits="userSpaceOnUse"><path d="M665.751 733.218h22.324v-22.325h-22.324z"/></clipPath><clipPath id="J" clipPathUnits="userSpaceOnUse"><path d="M665.751 710.893h22.324v22.325h-22.324z"/></clipPath><clipPath id="K" clipPathUnits="userSpaceOnUse"><path d="M506.713 217.07h36.874v-36.873h-36.874z"/></clipPath><clipPath id="L" clipPathUnits="userSpaceOnUse"><path d="M506.713 180.197h36.873v36.873h-36.873z"/></clipPath><clipPath id="M" clipPathUnits="userSpaceOnUse"><path d="M968.901 166.472h36.869v-36.874h-36.869z"/></clipPath><clipPath id="N" clipPathUnits="userSpaceOnUse"><path d="M968.901 129.598h36.868v36.873h-36.868z"/></clipPath><clipPath id="O" clipPathUnits="userSpaceOnUse"><path d="M927.446 610.084h28.755v-28.755h-28.755z"/></clipPath><clipPath id="P" clipPathUnits="userSpaceOnUse"><path d="M927.446 581.329h28.755v28.755h-28.755z"/></clipPath><clipPath id="Q" clipPathUnits="userSpaceOnUse"><path d="M0 0h1096v780H0z"/></clipPath><clipPath id="R" clipPathUnits="userSpaceOnUse"><path d="M977.674 75.516h81.576V-6.062h-81.576z"/></clipPath><clipPath id="S" clipPathUnits="userSpaceOnUse"><path d="M977.674-6.062h81.576v81.577h-81.576z"/></clipPath><clipPath id="T" clipPathUnits="userSpaceOnUse"><path d="M987.338 722.056h22.322v-22.325h-22.322z"/></clipPath><clipPath id="U" clipPathUnits="userSpaceOnUse"><path d="M987.338 699.731h22.322v22.325h-22.322z"/></clipPath><clipPath id="V" clipPathUnits="userSpaceOnUse"><path d="M852.869 151.895h22.324V129.57h-22.324z"/></clipPath><clipPath id="W" clipPathUnits="userSpaceOnUse"><path d="M852.869 129.57h22.324v22.323h-22.324z"/></clipPath><clipPath id="X" clipPathUnits="userSpaceOnUse"><path d="M822.492 57.957h22.324V35.633h-22.324z"/></clipPath><clipPath id="Y" clipPathUnits="userSpaceOnUse"><path d="M822.492 35.633h22.324v22.324h-22.324z"/></clipPath><clipPath id="Z" clipPathUnits="userSpaceOnUse"><path d="M968.901 166.472h36.869v-36.874h-36.869z"/></clipPath><clipPath id="aa" clipPathUnits="userSpaceOnUse"><path d="M968.901 129.598h36.868v36.873h-36.868z"/></clipPath><clipPath id="ab" clipPathUnits="userSpaceOnUse"><path d="M927.446 610.084h28.755v-28.755h-28.755z"/></clipPath><clipPath id="ac" clipPathUnits="userSpaceOnUse"><path d="M927.446 581.329h28.755v28.755h-28.755z"/></clipPath><linearGradient id="a" spreadMethod="pad" gradientTransform="matrix(0 780 -780 0 548 .5)" gradientUnits="userSpaceOnUse" y2="0" x2="1" y1="0" x1="0"><stop offset="0"/><stop offset=".002"/><stop offset="1" stop-color="#1a2431"/></linearGradient><linearGradient spreadMethod="pad" y2="0" x2="1" y1="0" x1="0" gradientTransform="matrix(0 780 -780 0 548 .5)" gradientUnits="userSpaceOnUse" id="c" xlink:href="#a"/></defs><g clip-path="url(#b)" transform="matrix(.7792 0 0 -.61538 0 480)"><path d="M0 0h1096v780H0z" fill="url(#c)"/></g><g clip-path="url(#d)" transform="matrix(.61587 0 0 -.61538 0 480)"><g clip-path="url(#e)"><g clip-path="url(#f)" opacity=".5"><path d="M177.152 577.27c0-9.42-1.742-11.162-11.162-11.162 9.42 0 11.162-1.741 11.162-11.162 0 9.42 1.742 11.161 11.162 11.161-9.42 0-11.162 1.742-11.162 11.162" fill="#fff"/></g></g><g clip-path="url(#g)"><g clip-path="url(#h)" opacity=".5"><path d="M467.962 602.98c0-15.559-2.877-18.436-18.436-18.436 15.56 0 18.436-2.877 18.436-18.437 0 15.56 2.878 18.437 18.437 18.437-15.559 0-18.437 2.877-18.437 18.436" fill="#fff"/></g></g><g clip-path="url(#i)"><g clip-path="url(#j)" opacity=".5"><path d="M251.498 170.387c0-34.423-6.365-40.79-40.786-40.79 34.421 0 40.786-6.365 40.786-40.787 0 34.422 6.367 40.788 40.791 40.788-34.424 0-40.791 6.366-40.791 40.789" fill="#fff"/></g></g><g clip-path="url(#k)"><g clip-path="url(#l)" opacity=".5"><path d="M1018.46 75.516c0-34.423-6.364-40.79-40.785-40.79 34.42 0 40.786-6.365 40.786-40.787 0 34.422 6.367 40.788 40.79 40.788-34.423 0-40.79 6.366-40.79 40.789" fill="#fff"/></g></g><g clip-path="url(#m)"><g clip-path="url(#n)" opacity=".5"><path d="M998.5 722.056c0-9.42-1.742-11.162-11.162-11.162 9.42 0 11.162-1.742 11.162-11.162 0 9.42 1.742 11.162 11.162 11.162-9.42 0-11.162 1.742-11.162 11.162" fill="#fff"/></g></g><g clip-path="url(#o)"><g clip-path="url(#p)" opacity=".5"><path d="M401.858 103.665c0-15.817-2.925-18.743-18.743-18.743 15.818 0 18.743-2.925 18.743-18.742 0 15.817 2.925 18.742 18.743 18.742-15.818 0-18.743 2.926-18.743 18.743" fill="#fff"/></g></g><g clip-path="url(#q)"><g clip-path="url(#r)" opacity=".5"><path d="M658.982 558.834c0-9.42-1.742-11.162-11.162-11.162 9.42 0 11.162-1.742 11.162-11.162 0 9.42 1.742 11.162 11.162 11.162-9.42 0-11.162 1.742-11.162 11.162" fill="#fff"/></g></g><g clip-path="url(#s)"><g clip-path="url(#t)" opacity=".5"><path d="M348.577 764c0-9.42-1.742-11.162-11.162-11.162 9.42 0 11.162-1.742 11.162-11.162 0 9.42 1.742 11.162 11.162 11.162-9.42 0-11.162 1.742-11.162 11.162" fill="#fff"/></g></g><g clip-path="url(#u)"><g clip-path="url(#v)" opacity=".5"><path d="M70.914 675.096c0-9.42-1.742-11.162-11.162-11.162 9.42 0 11.162-1.742 11.162-11.162 0 9.42 1.742 11.162 11.162 11.162-9.42 0-11.162 1.742-11.162 11.162" fill="#fff"/></g></g><g clip-path="url(#w)"><g clip-path="url(#x)" opacity=".5"><path d="M706.338 159.197c0-9.42-1.742-11.162-11.162-11.162 9.42 0 11.162-1.742 11.162-11.162 0 9.42 1.742 11.162 11.162 11.162-9.42 0-11.162 1.742-11.162 11.162" fill="#fff"/></g></g><g><g clip-path="url(#y)"><g clip-path="url(#z)" opacity=".5"><path d="M864.031 151.894c0-9.42-1.742-11.162-11.162-11.162 9.42 0 11.162-1.742 11.162-11.162 0 9.42 1.742 11.162 11.162 11.162-9.42 0-11.162 1.742-11.162 11.162" fill="#fff"/></g></g></g><g><g clip-path="url(#A)"><g clip-path="url(#B)" opacity=".5"><path d="M48.59 159.197c0-9.42-1.742-11.162-11.162-11.162 9.42 0 11.162-1.742 11.162-11.162 0 9.42 1.742 11.162 11.162 11.162-9.42 0-11.162 1.742-11.162 11.162" fill="#fff"/></g></g></g><g><g clip-path="url(#C)"><g clip-path="url(#D)" opacity=".5"><path d="M586.144 114.827c0-9.42-1.742-11.162-11.162-11.162 9.42 0 11.162-1.742 11.162-11.162 0 9.42 1.742 11.162 11.162 11.162-9.42 0-11.162 1.741-11.162 11.162" fill="#fff"/></g></g></g><g><g clip-path="url(#E)"><g clip-path="url(#F)" opacity=".5"><path d="M833.654 57.957c0-9.42-1.742-11.162-11.162-11.162 9.42 0 11.162-1.741 11.162-11.162 0 9.421 1.742 11.162 11.162 11.162-9.42 0-11.162 1.742-11.162 11.162" fill="#fff"/></g></g></g><g><g clip-path="url(#G)"><g clip-path="url(#H)" opacity=".5"><path d="M120.395 54.883c0-9.42-1.741-11.162-11.161-11.162 9.42 0 11.161-1.741 11.161-11.161 0 9.42 1.743 11.16 11.163 11.16-9.42 0-11.162 1.743-11.162 11.163" fill="#fff"/></g></g></g><g><g clip-path="url(#I)"><g clip-path="url(#J)" opacity=".5"><path d="M676.913 733.218c0-9.42-1.742-11.162-11.162-11.162 9.42 0 11.162-1.742 11.162-11.162 0 9.42 1.741 11.162 11.162 11.162-9.42 0-11.162 1.742-11.162 11.162" fill="#fff"/></g></g></g><g><g clip-path="url(#K)"><g clip-path="url(#L)" opacity=".5"><path d="M525.15 217.07c0-15.56-2.877-18.437-18.436-18.437 15.559 0 18.436-2.877 18.436-18.436 0 15.56 2.877 18.436 18.437 18.436-15.56 0-18.437 2.876-18.437 18.437" fill="#fff"/></g></g></g><g><g clip-path="url(#M)"><g clip-path="url(#N)" opacity=".5"><path d="M987.337 166.472c0-15.561-2.877-18.437-18.436-18.437 15.559 0 18.436-2.877 18.436-18.436 0 15.559 2.878 18.436 18.437 18.436-15.56 0-18.437 2.876-18.437 18.437" fill="#fff"/></g></g></g><g><g clip-path="url(#O)"><g clip-path="url(#P)" opacity=".5"><path d="M941.824 610.084c0-12.133-2.244-14.377-14.378-14.377 12.134 0 14.378-2.244 14.378-14.378 0 12.134 2.244 14.378 14.377 14.378-12.133 0-14.377 2.244-14.377 14.377" fill="#fff"/></g></g></g></g><g clip-path="url(#Q)" transform="matrix(-.61587 0 0 .61538 1333.697 9.846)"><g clip-path="url(#R)"><g clip-path="url(#S)" opacity=".5"><path d="M1018.46 75.516c0-34.423-6.364-40.79-40.785-40.79 34.42 0 40.786-6.365 40.786-40.787 0 34.422 6.367 40.788 40.79 40.788-34.423 0-40.79 6.366-40.79 40.789" fill="#fff"/></g></g><g clip-path="url(#T)"><g clip-path="url(#U)" opacity=".5"><path d="M998.5 722.056c0-9.42-1.742-11.162-11.162-11.162 9.42 0 11.162-1.742 11.162-11.162 0 9.42 1.742 11.162 11.162 11.162-9.42 0-11.162 1.742-11.162 11.162" fill="#fff"/></g></g><g clip-path="url(#V)"><g clip-path="url(#W)" opacity=".5"><path d="M864.031 151.894c0-9.42-1.742-11.162-11.162-11.162 9.42 0 11.162-1.742 11.162-11.162 0 9.42 1.742 11.162 11.162 11.162-9.42 0-11.162 1.742-11.162 11.162" fill="#fff"/></g></g><g><g clip-path="url(#X)"><g clip-path="url(#Y)" opacity=".5"><path d="M833.654 57.957c0-9.42-1.742-11.162-11.162-11.162 9.42 0 11.162-1.741 11.162-11.162 0 9.421 1.742 11.162 11.162 11.162-9.42 0-11.162 1.742-11.162 11.162" fill="#fff"/></g></g></g><g><g clip-path="url(#Z)"><g clip-path="url(#aa)" opacity=".5"><path d="M987.337 166.472c0-15.561-2.877-18.437-18.436-18.437 15.559 0 18.436-2.877 18.436-18.436 0 15.559 2.878 18.436 18.437 18.436-15.56 0-18.437 2.876-18.437 18.437" fill="#fff"/></g></g></g><g><g clip-path="url(#ab)"><g clip-path="url(#ac)" opacity=".5"><path d="M941.824 610.084c0-12.133-2.244-14.377-14.378-14.377 12.134 0 14.378-2.244 14.378-14.378 0 12.134 2.244 14.378 14.377 14.378-12.133 0-14.377 2.244-14.377 14.377" fill="#fff"/></g></g></g></g></svg>