<svg xmlns="http://www.w3.org/2000/svg" viewBox="0 0 67.732 67.732" height="256" width="256"><defs><clipPath id="a" clipPathUnits="userSpaceOnUse"><path d="M212.571 534.49V383.096c.307-.011.615-.011.922-.011 41.817 0 75.717 33.899 75.717 75.707 0 41.808-33.9 75.707-75.717 75.707-.307 0-.615 0-.922-.009"/></clipPath></defs><g clip-path="url(#a)" transform="matrix(.44733 0 0 -.44733 -77.95 239.099)"><path d="M135.935 458.793c0 41.812 33.895 75.706 75.707 75.706 41.812 0 75.708-33.894 75.708-75.706 0-41.812-33.896-75.708-75.708-75.708-41.811 0-75.706 33.896-75.706 75.708" fill="#fefefe"/></g><path d="M26.722 8.795c-1.842-2.399-5.578-1.833-6.957.773-1.446 2.731.592 6.378 3.76 6.4a2.284 2.284 0 002.003-1.1c2.211-1.095 2.712-4.096 1.194-6.073M34.744 11.082l-.266-.043c-.72-.115-1.295.015-1.73.286-.379.212-.647.557-.803.962-.015.034-.026.07-.039.105-.013.039-.029.075-.04.114a2.43 2.43 0 00.16 1.787l.007.013c.154.303.376.56.668.736.439.29 1.03.43 1.777.311l.266-.043c1.246-.197 1.694-1.155 1.563-2.113.133-.959-.315-1.918-1.563-2.115M42.306 46.315l-.317-.752a3.167 3.167 0 00-1.128-1.128l-.918-.409a2.303 2.303 0 00-1.15-.367 2.347 2.347 0 00-1.233.055c-.717.198-1.495.753-1.848 1.421-.38.719-.57 1.588-.312 2.384.247.765.71 1.438 1.421 1.848l.865.5c.71.41 1.632.535 2.423.317.73-.201 1.52-.766 1.88-1.446.386-.73.58-1.614.317-2.423M28.963 19.76c-.764 0-.766 1.187 0 1.187.765 0 .766-1.188 0-1.188" fill="#e6e6e6"/></svg>