<svg xmlns="http://www.w3.org/2000/svg" viewBox="0 0 67.732 67.732" height="256" width="256"><defs><clipPath id="a" clipPathUnits="userSpaceOnUse"><path d="M82.076 534.489s38.321-26.548 38.321-75.697c0-48.389-38.321-75.698-38.321-75.698.306-.009.616-.009.924-.009 41.816 0 75.715 33.899 75.715 75.707 0 41.81-33.899 75.707-75.715 75.707-.308 0-.618 0-.924-.01"/></clipPath></defs><g clip-path="url(#a)" transform="matrix(.44734 0 0 -.44734 -19.575 239.102)"><path d="M5.442 458.793c0 41.812 33.895 75.706 75.706 75.706 41.813 0 75.708-33.894 75.708-75.706 0-41.813-33.895-75.708-75.708-75.708-41.811 0-75.706 33.895-75.706 75.708" fill="#fefefe"/></g><path d="M37.488 14.538a.71.71 0 00-.699-.7l-.224-.002c-.782-.01-1.25 1.033-.654 1.58.24.22.58.326.9.238a.942.942 0 00.68-.893l-.003-.223M47.38 24.525l-.47-.363a2.315 2.315 0 00-1.174-.317 136.17 136.17 0 00-.447-.053c-.564-.066-1.298.313-1.68.696-.413.413-.723 1.088-.697 1.68.028.616.23 1.253.696 1.68.433.398 1.069.768 1.68.697l.448-.053c.32.013.619-.054.895-.2.289-.093.538-.254.748-.48.403-.403.707-1.064.681-1.643-.027-.602-.224-1.225-.68-1.644M45.637 36.11c-.525-.526-1.385-.92-2.138-.886-.782.035-1.593.291-2.137.885-.531.578-.917 1.33-.886 2.137l.018.448c.03.79.314 1.56.88 2.125.521.521 1.377.914 2.125.88.777-.034 1.584-.29 2.125-.88.552-.6.848-1.301.88-2.125l.018-.448c.03-.755-.358-1.61-.885-2.137M38.131 19.07c-.905 0-1.772.796-1.73 1.73.042.937.76 1.73 1.73 1.73.905 0 1.772-.795 1.73-1.73-.042-.937-.76-1.73-1.73-1.73" fill="#e6e6e6"/></svg>