<svg xmlns="http://www.w3.org/2000/svg" viewBox="0 0 67.732 67.732" height="256" width="256"><defs><clipPath id="a" clipPathUnits="userSpaceOnUse"><path d="M363.61 534.489s-26.196-26.548-26.196-75.696c0-48.39 26.196-75.699 26.196-75.699.307-.009.615-.009.922-.009 41.817 0 75.717 33.899 75.717 75.708 0 41.807-33.9 75.706-75.717 75.706-.307 0-.615 0-.922-.01"/></clipPath></defs><g clip-path="url(#a)" transform="matrix(.44733 0 0 -.44733 -139.655 239.099)"><path d="M286.974 458.793c0 41.811 33.896 75.707 75.708 75.707 41.813 0 75.709-33.896 75.709-75.707 0-41.811-33.896-75.708-75.71-75.708-41.811 0-75.707 33.897-75.707 75.708" fill="#fefefe"/></g><path d="M35.481 42.904c.544-3.525-1.805-6.431-5.27-7.002-3.168-.522-6.438 1.046-8.233 3.67-4.81 7.029 4.46 16.286 11.14 10.433 2.044-1.79 2.992-4.585 2.363-7.101M44.298 31.715a18.548 18.548 0 00-.154-.124c-2.455-1.977-2.458 3.66 0 1.68l.154-.123c.265-.214.36-.47.34-.716.02-.247-.074-.503-.34-.717M36.782 22.85c-.485-.486-1.281-.85-1.977-.82-.724.033-1.473.27-1.977.82-.491.534-.849 1.23-.819 1.977l.017.447c.029.73.29 1.441.814 1.965.482.481 1.272.845 1.965.813.718-.032 1.463-.268 1.964-.813.51-.556.784-1.203.814-1.965l.018-.447c.027-.7-.332-1.49-.82-1.978" fill="#e6e6e6"/></svg>