<svg xmlns="http://www.w3.org/2000/svg" viewBox="0 0 67.732 67.732" height="256" width="256"><defs><clipPath id="a" clipPathUnits="userSpaceOnUse"><path d="M658.984 458.792c0-41.809 33.898-75.707 75.714-75.707.31 0 .615 0 .922.009 0 0 26.197 26.548 26.197 75.698 0 48.389-26.197 75.697-26.197 75.697-.307.01-.612.01-.922.01-41.816 0-75.714-33.899-75.714-75.707"/></clipPath></defs><g clip-path="url(#a)" transform="matrix(.44734 0 0 -.44734 -284.14 239.1)"><path d="M659.958 458.793c0 41.812 33.897 75.707 75.708 75.707 41.814 0 75.709-33.895 75.709-75.707 0-41.811-33.895-75.707-75.709-75.707-41.811 0-75.708 33.896-75.708 75.707" fill="#fefefe"/></g><path d="M31.691 13.728a3.901 3.901 0 00-.386-.319 1.181 1.181 0 00-.256-.185 2.38 2.38 0 00-1.078-.567 2.398 2.398 0 00-1.264-.057c-.422.02-.815.144-1.179.376l-.641.496c-.31.286-.528.627-.655 1.02-.199.378-.29.785-.274 1.222a2.39 2.39 0 00.274 1.221c.127.393.346.733.655 1.02l.641.496a2.36 2.36 0 001.18.376c.42.094.842.076 1.263-.056.176-.057.35-.128.52-.209.136-.03.27-.076.395-.149.343-.111.639-.301.889-.57.476-.52.857-1.224.809-1.953-.054-.8-.29-1.59-.893-2.162M27.207 26.225c-1.08 0-1.082 1.677 0 1.677 1.079 0 1.08-1.677 0-1.677M38.12 22.397l-.047-.017a3.164 3.164 0 00-.137-.097c-.558-.386-1.315.13-1.315.755 0 .623.757 1.14 1.315.754.046-.032.092-.063.137-.098l.046-.016a.67.67 0 000-1.281M43.758 46.977c-.854 0-.856 1.328 0 1.328.854 0 .856-1.328 0-1.328" fill="#e6e6e6"/></svg>