<svg xmlns="http://www.w3.org/2000/svg" viewBox="0 0 67.732 67.732" height="256" width="256"><defs><clipPath id="a" clipPathUnits="userSpaceOnUse"><path d="M941.824 458.792c0-41.808 33.897-75.707 75.715-75.707.308 0 .617 0 .924.009 0 0-38.322 27.309-38.322 75.698 0 49.149 38.322 75.698 38.322 75.698-.307.009-.616.009-.924.009-41.818 0-75.715-33.897-75.715-75.707"/></clipPath></defs><g clip-path="url(#a)" transform="matrix(.44733 0 0 -.44733 -404.585 239.099)"><path d="M941.83 458.793c0 41.812 33.892 75.706 75.705 75.706 41.812 0 75.707-33.894 75.707-75.706 0-41.813-33.895-75.708-75.707-75.708-41.813 0-75.706 33.895-75.706 75.708" fill="#fefefe"/></g><path d="M34.668 12.301c-.031-.687-.257-1.399-.778-1.878l-.538-.415c-.023-.014-.047-.023-.07-.036-.57-.5-1.307-.812-2.075-.812-.806 0-1.652.35-2.222.92a2.352 2.352 0 00-.65 1.011 2.369 2.369 0 00-.27 1.21c.037.813.303 1.655.92 2.221.599.55 1.385.957 2.222.92l.834-.112a2.358 2.358 0 001.069-.562 2.36 2.36 0 00.233-.172 2.02 2.02 0 00.547-.417c.46-.46.807-1.216.778-1.878M32.129 18.493l-.324-.211c-.88-.574-2.051.182-2.051 1.176 0 .995 1.172 1.75 2.05 1.177l.325-.211c.72-.47.72-1.462 0-1.93M28.842 45.932c-.444-1.372-1.925-2.405-3.396-1.929a2.864 2.864 0 00-1.434.99c-.423.547-.562 1.121-.582 1.772-.216.34-.141.849.242.99.266.53.586.954 1.115 1.295.586.377 1.466.46 2.126.278 1.392-.383 2.388-1.977 1.929-3.396" fill="#e6e6e6"/></svg>