<svg xmlns="http://www.w3.org/2000/svg" height="75" width="150"><g clip-rule="evenodd" fill-rule="evenodd"><path d="M96.402 25.266c.22.014.44.027.659.042 1.685.117 3.295.512 4.8 1.294a11.457 11.457 0 012.879 2.144 11.918 11.918 0 012.262 3.17c.422.87.715 1.782.918 2.726.248 1.156.33 2.327.281 3.505-.08 1.89-.497 3.697-1.389 5.379a11.998 11.998 0 01-2.396 3.113 11.143 11.143 0 01-5.44 2.854c-.77.162-1.548.265-2.335.29-.036 0-.07.011-.107.017h-.926l-.603-.043c-2.411-.175-4.612-.92-6.519-2.437-1.505-1.197-2.683-2.658-3.487-4.412a12.006 12.006 0 01-.865-2.788 13.905 13.905 0 01-.216-3.29c.116-2.325.728-4.495 2.077-6.419 1.578-2.25 3.642-3.85 6.306-4.623.812-.236 1.64-.393 2.483-.458.268-.021.536-.031.804-.048.043-.002.087-.01.13-.016zm-.366 21.38c.857-.007 1.686-.077 2.5-.278a8.168 8.168 0 004.416-2.759c1.196-1.43 1.818-3.092 1.986-4.934.058-.631.065-1.263.027-1.895a9.857 9.857 0 00-.313-2.03c-.57-2.074-1.733-3.728-3.523-4.925-1.338-.895-2.835-1.304-4.432-1.384a11.386 11.386 0 00-2.601.153c-1.504.273-2.842.894-3.995 1.904a8.453 8.453 0 00-2.426 3.57c-.379 1.058-.53 2.154-.546 3.273-.013.87.048 1.734.238 2.583.342 1.533 1.032 2.887 2.108 4.04a8.186 8.186 0 003.396 2.198c1.033.353 2.1.472 3.165.484M140 49.249c-.091.219-.16.263-.408.263h-2.427c-.285 0-.39-.105-.39-.392V25.954c0-.297.104-.401.406-.401.809 0 1.618-.003 2.426.004.1 0 .21.04.295.093.051.032.067.124.098.189v23.41z"/><path d="M74.018 35.272l1.217 1.616c.856 1.138 1.714 2.277 2.57 3.417l3.307 4.394c1.08 1.436 2.16 2.872 3.242 4.306.08.105.114.213.057.336-.058.124-.171.163-.299.17-.058.004-.117.001-.176.001-.997 0-1.993 0-2.99.002a.46.46 0 01-.402-.2c-1.88-2.511-3.763-5.02-5.646-7.53l-3.21-4.275c-.008-.012-.018-.022-.033-.04l-.387.36-2.602 2.434c-.478.446-.956.893-1.436 1.337a.243.243 0 00-.088.198c.002 2.427.002 4.854.002 7.28v.089c-.006.222-.12.343-.342.344-.85.003-1.699.003-2.548 0-.215 0-.329-.122-.333-.338v-23.22c0-.293.105-.4.396-.4H66.799c.225.01.335.122.345.345V37.361l.54-.503 3.071-2.883 4.032-3.777 3.378-3.17c.474-.445.95-.889 1.424-1.336a.483.483 0 01.346-.139h3.563c.203 0 .317.074.36.226.035.125-.013.222-.1.305l-1.033.98c-.61.574-1.221 1.148-1.83 1.723l-2.536 2.39c-.866.818-1.731 1.637-2.597 2.453l-1.744 1.642M111.886 37.536v-11.54l.001-.1c.005-.217.114-.33.33-.343h.044c3.3 0 6.598-.008 9.896.005 1.517.005 2.969.346 4.354.965a10.24 10.24 0 013.182 2.236 11.376 11.376 0 012.982 5.447c.282 1.205.398 2.426.373 3.66-.035 1.66-.323 3.27-.952 4.811a11.237 11.237 0 01-2.224 3.444c-1.453 1.557-3.22 2.58-5.29 3.082a11.44 11.44 0 01-2.716.312c-3.195-.005-6.39-.002-9.587-.003-.054 0-.11-.004-.163-.012a.238.238 0 01-.213-.207 1.028 1.028 0 01-.016-.185V37.536m3.227 8.893h.142c2.148 0 4.295.001 6.443-.003.385 0 .771-.017 1.155-.047a6.73 6.73 0 002.286-.607c.95-.435 1.75-1.07 2.437-1.853a8.802 8.802 0 001.521-2.438c.398-.954.612-1.949.69-2.978.073-.939.044-1.873-.097-2.803a8.897 8.897 0 00-1.078-3.1c-.613-1.074-1.406-1.993-2.423-2.704-1.218-.85-2.586-1.245-4.062-1.253-2.299-.01-4.597-.003-6.895-.004h-.12v17.79z"/><g fill="#31afe1"><path d="M52.87 37.855c-.138.449-.44.778-.765 1.1-2.175 2.168-4.342 4.342-6.512 6.514-.782.782-1.618.78-2.403-.005-2.24-2.242-4.48-4.483-6.718-6.725-.763-.763-.762-1.597.002-2.362l6.756-6.762c.733-.734 1.594-.734 2.327-.001 2.183 2.183 4.363 4.37 6.55 6.55.325.324.627.653.764 1.102v.59zM31.284 58.853c-.447-.142-.77-.451-1.092-.775-2.165-2.177-4.337-4.346-6.507-6.518-.776-.778-.777-1.607-.003-2.383l6.738-6.741c.746-.747 1.602-.75 2.345-.007l6.736 6.743c.771.772.774 1.618.006 2.386-2.189 2.192-4.38 4.38-6.564 6.575-.313.314-.634.597-1.07.72h-.589zM23.403 32.176c0-2.5.023-4.998-.014-7.497-.01-.723.162-1.287.714-1.765.444-.383.838-.826 1.254-1.243l4.94-4.944c.773-.774 1.609-.773 2.383 0l6.718 6.723c.77.77.769 1.617 0 2.387l-7.947 7.954-7.018 7.025c-.433.434-.818.333-.975-.268a2.328 2.328 0 01-.053-.582c-.003-2.596-.002-5.193-.002-7.79M18.047 37.59c0 2.293.003 4.587-.005 6.88 0 .217-.035.448-.113.65-.153.399-.44.448-.741.148-1.055-1.053-2.107-2.11-3.16-3.163l-3.65-3.657c-.503-.505-.505-1.205-.003-1.713l6.72-6.794c.149-.15.288-.353.54-.258.24.091.336.308.37.549.021.149.038.3.038.451.003 2.302.002 4.605.002 6.907z"/></g></g><path d="M705.784 239.297h-2.541v6.49h-.825v-6.49h-2.54v-.792h5.906zM713.914 238.505v7.282h-.825v-6.028l-2.695 3.465-2.738-3.465v6.028h-.825v-7.282h.957l2.606 3.454 2.563-3.454z"/></svg>