<svg xmlns="http://www.w3.org/2000/svg" height="75" width="150"><path fill="#d81f26" d="M27.875 52.802c-1.955.343-3.945.446-6.004.72l-6.279-18.39v19.18c-1.955.206-3.74.48-5.592.755V19.933h5.215l7.137 19.935V19.933h5.523zM38.683 32.8c2.127 0 5.387-.103 7.342-.103v5.49c-2.436 0-5.283 0-7.342.102v8.166c3.225-.206 6.45-.48 9.71-.584v5.284l-15.2 1.2V19.934h15.2v5.49h-9.71zm30.124-7.377h-5.695v25.252c-1.853 0-3.706 0-5.49.068v-25.32h-5.695v-5.49h16.88zm8.92 7h7.514v5.489h-7.514v12.454H72.34V19.933h15.337v5.49h-9.95zm18.87 13.14c3.123.068 6.28.309 9.333.48v5.421c-4.906-.309-9.812-.617-14.822-.72v-30.81h5.49zm13.965 6.279c1.75.103 3.603.206 5.387.411v-32.32h-5.387zM140 19.933l-6.965 16.71L140 55.066c-2.059-.275-4.117-.652-6.176-.995l-3.945-10.156-4.014 9.332c-1.99-.343-3.912-.446-5.902-.72l7.068-16.092-6.382-16.503h5.901l3.603 9.23 3.843-9.23z"/></svg>