<svg xmlns="http://www.w3.org/2000/svg" height="75" width="150"><g fill-rule="evenodd" fill="none"><path d="M73.343 21.924l-11.888-9.936-25.882 25.523 13.263 13.574z" fill-rule="nonzero" fill="#ff6d00"/><path d="M66.087 17.492l-1.692-1.689c-1.676-1.68-3.695-1.71-5.577.175l-1.34 1.342c-1.884 1.882-1.853 3.897-.177 5.577l1.692 1.686c1.676 1.683 3.695 1.713 5.577-.17l1.34-1.342c1.884-1.884 1.854-3.9.176-5.58zm-8.475 8.474l-1.694-1.687c-1.677-1.678-3.693-1.71-5.574.175l-1.342 1.342c-1.883 1.881-1.854 3.895-.176 5.577l5.425 5.423c.627.624 1.332.531 1.814.05.482-.481.563-1.174-.062-1.801L54.755 33.8c.339-.072.757-.33 1.248-.822l1.431-1.434c1.887-1.881 1.854-3.896.178-5.577zm-6.726 10.533l-3.593-3.591c-1.68-1.68-3.694-1.71-5.578.172l-1.342 1.34c-1.883 1.883-1.854 3.9-.174 5.58l3.591 3.595c.629.626 1.331.532 1.814.054.48-.484.564-1.183-.065-1.804l-3.56-3.565c-.674-.673-.655-1.31.104-2.066l1.424-1.422c.755-.76 1.392-.781 2.067-.104l3.56 3.561c.624.627 1.321.543 1.803.063.482-.484.574-1.186-.05-1.813zm36.679 4.53L65.276 63.316c-2.244 2.245-4.818 2.245-7.06 0L35.932 41.031c-2.244-2.244-2.244-4.816 0-7.06L58.22 11.684c2.244-2.245 4.815-2.245 7.058 0l22.287 22.285c2.245 2.242 2.245 4.816.002 7.059zM62.678 17.583c-.678-.675-1.311-.656-2.068.104l-1.423 1.422c-.756.755-.778 1.392-.1 2.065l1.625 1.628c.676.679 1.31.658 2.068-.102l1.423-1.423c.754-.755.776-1.393.102-2.066zM55.83 27.688c.675.675.653 1.311-.104 2.066l-1.422 1.423c-.76.76-1.39.78-2.068.103l-1.628-1.63c-.674-.673-.655-1.308.101-2.065l1.423-1.423c.76-.76 1.393-.778 2.07-.103l1.628 1.628z" fill-rule="nonzero" fill="#e6e6e6"/><path d="M62.436 33.97c-2.244 2.243-2.244 4.816 0 7.059l22.286 22.287c2.244 2.245 4.817 2.245 7.062 0l22.286-22.285c2.244-2.244 2.241-4.818 0-7.06L91.784 11.684c-2.245-2.245-4.818-2.245-7.06 0L62.437 33.97" fill="#ff6d00"/><path d="M74.337 36.455c-1.045-.249-1.375-.35-1.375-.805 0-.627.884-.72 1.412-.72.484 0 1.089.112 1.622.3.137.046.272.087.409.087.377 0 .552-.29.674-.574l.081-.198c.045-.12.088-.255.088-.395 0-.313-.198-.566-.544-.693-.827-.314-1.698-.379-2.283-.379-2.298 0-3.614.98-3.614 2.685 0 1.898 1.57 2.248 3.235 2.618l.028.007c.92.204 1.362.325 1.362.83 0 .182 0 .737-1.526.737-.61 0-1.246-.119-1.944-.365a1.324 1.324 0 00-.41-.087c-.376 0-.552.29-.672.572l-.099.231a1.133 1.133 0 00-.088.397c0 .314.198.565.542.692.69.274 1.584.412 2.655.412 2.384 0 3.697-.96 3.697-2.702 0-1.896-1.58-2.263-3.25-2.65zm18.276.38l-5.5-3.461a.693.693 0 00-1.06.587v6.921a.693.693 0 001.06.588l5.5-3.462a.693.693 0 000-1.172zm-8.028 3.52c-.075-.35-.26-.513-.584-.513-.075 0-.228.017-.321.033a3.286 3.286 0 01-.42.032c-.843 0-1.364-.264-1.364-1.578v-3.205h1.88c.564 0 .827-.264.827-.828v-.227c0-.565-.263-.83-.828-.83h-1.88v-1.204c0-.566-.263-.829-.828-.829h-.515c-.565 0-.828.264-.828.83v1.204h-.478c-.565 0-.827.264-.827.83v.226c0 .565.262.828.827.828h.478v3.401c0 2.209 1.06 3.284 3.245 3.284.417 0 .807-.063 1.101-.116.407-.074.63-.316.63-.682 0-.081-.025-.214-.051-.346l-.064-.308zm21.84.309l-.066-.308c-.073-.35-.259-.514-.583-.514a2.552 2.552 0 00-.32.033 3.301 3.301 0 01-.422.032c-.841 0-1.363-.264-1.363-1.578v-3.205h1.88c.565 0 .828-.264.828-.828v-.227c0-.565-.264-.83-.829-.83h-1.88v-1.204c0-.566-.262-.829-.828-.829h-.515c-.565 0-.828.264-.828.83v1.204h-.477c-.566 0-.828.264-.828.83v.226c0 .565.263.828.828.828h.477v3.401c0 2.209 1.062 3.284 3.245 3.284.418 0 .807-.063 1.102-.116.405-.074.63-.316.63-.682 0-.081-.026-.213-.051-.346zm-7.155-6.79c0 .078-.018.247-.033.33l-.033.162c-.102.47-.252.742-.729.742-.099 0-.226-.011-.374-.025a7.527 7.527 0 00-.706-.04c-.358 0-.848.04-1.188.132v5.643c0 .564-.263.828-.827.828h-.516c-.564 0-.828-.264-.828-.83V34.44c0-.54.243-.858.764-1.003a9.74 9.74 0 013.753-.294c.456.055.717.321.717.732z" fill="#fffffe"/></g></svg>